<?xml version="1.0" encoding="UTF-8" standalone="no"?>
<!-- Generator: Adobe Illustrator 27.4.0, SVG Export Plug-In . SVG Version: 6.00 Build 0)  -->

<svg
   version="1.1"
   id="Layer_1"
   x="0px"
   y="0px"
   viewBox="0 0 600 149.99999"
   xml:space="preserve"
   sodipodi:docname="BugSnag_Dark.svg"
   width="600"
   height="150"
   inkscape:version="1.1.1 (c3084ef, 2021-09-22)"
   xmlns:inkscape="http://www.inkscape.org/namespaces/inkscape"
   xmlns:sodipodi="http://sodipodi.sourceforge.net/DTD/sodipodi-0.dtd"
   xmlns="http://www.w3.org/2000/svg"
   xmlns:svg="http://www.w3.org/2000/svg"><defs
   id="defs62" /><sodipodi:namedview
   id="namedview60"
   pagecolor="#ffffff"
   bordercolor="#666666"
   borderopacity="1.0"
   inkscape:pageshadow="2"
   inkscape:pageopacity="0.0"
   inkscape:pagecheckerboard="0"
   showgrid="false"
   width="600px"
   inkscape:zoom="2.8575"
   inkscape:cx="158.88014"
   inkscape:cy="66.31671"
   inkscape:window-width="3440"
   inkscape:window-height="1387"
   inkscape:window-x="0"
   inkscape:window-y="25"
   inkscape:window-maximized="1"
   inkscape:current-layer="Layer_1" />
<style
   type="text/css"
   id="style9">
	.st0{fill:#FFFFFF;}
	.st1{fill:#84A7FF;}
	.st2{fill:#173647;}
</style>
<g
   id="g57"
   transform="matrix(1.5110073,0,0,1.5110073,-2.2014634,-18.873284)">
	<g
   id="g25">
		<path
   class="st0"
   d="m 145.2,57.3 h 10.6 c 5,0 8.6,0.7 10.8,2.2 2.2,1.5 3.3,3.8 3.3,7.1 0,2.2 -0.6,4.1 -1.9,5.5 -1.2,1.4 -3.1,2.4 -5.4,2.8 v 0.3 c 5.7,1 8.6,4 8.6,9 0,3.4 -1.1,6 -3.4,7.9 -2.3,1.9 -5.4,2.8 -9.5,2.8 h -13.1 z m 4.3,16.1 h 7.2 c 3.1,0 5.3,-0.5 6.7,-1.5 1.4,-1 2,-2.6 2,-4.9 0,-2.1 -0.8,-3.6 -2.3,-4.6 -1.5,-0.9 -3.9,-1.4 -7.2,-1.4 h -6.4 z m 0,3.7 v 14.1 h 7.8 c 3,0 5.3,-0.6 6.9,-1.8 1.5,-1.2 2.3,-3 2.3,-5.5 0,-2.3 -0.8,-4 -2.4,-5.1 -1.6,-1.1 -4,-1.6 -7.2,-1.6 h -7.4 z"
   id="path11" />
		<path
   class="st0"
   d="M 182.2,66.7 V 85 c 0,2.3 0.5,4 1.6,5.1 1,1.1 2.7,1.7 4.9,1.7 2.9,0 5.1,-0.8 6.5,-2.4 1.4,-1.6 2,-4.2 2,-7.9 V 66.7 h 4.3 V 94.9 H 198 l -0.6,-3.8 h -0.2 c -0.9,1.4 -2.1,2.5 -3.6,3.2 -1.6,0.7 -3.3,1.1 -5.3,1.1 -3.4,0 -6,-0.8 -7.7,-2.4 -1.7,-1.6 -2.6,-4.2 -2.6,-7.8 V 66.7 Z"
   id="path13" />
		<path
   class="st0"
   d="m 232.7,66.7 v 2.7 l -5.2,0.6 c 0.5,0.6 0.9,1.4 1.3,2.4 0.4,1 0.6,2.1 0.6,3.3 0,2.8 -0.9,5 -2.8,6.6 -1.9,1.6 -4.5,2.5 -7.8,2.5 -0.8,0 -1.6,-0.1 -2.4,-0.2 -1.8,1 -2.7,2.2 -2.7,3.6 0,0.8 0.3,1.3 1,1.7 0.6,0.4 1.7,0.6 3.3,0.6 h 5 c 3.1,0 5.4,0.6 7,1.9 1.6,1.3 2.5,3.2 2.5,5.6 0,3.1 -1.3,5.5 -3.8,7.1 -2.5,1.6 -6.2,2.5 -11,2.5 -3.7,0 -6.5,-0.7 -8.5,-2.1 -2,-1.4 -3,-3.3 -3,-5.8 0,-1.7 0.5,-3.2 1.6,-4.4 1.1,-1.3 2.6,-2.1 4.6,-2.5 -0.7,-0.3 -1.3,-0.8 -1.8,-1.5 -0.5,-0.7 -0.7,-1.5 -0.7,-2.4 0,-1 0.3,-1.9 0.8,-2.7 0.5,-0.8 1.4,-1.5 2.6,-2.2 -1.5,-0.6 -2.6,-1.6 -3.6,-3.1 -0.9,-1.4 -1.4,-3.1 -1.4,-4.9 0,-3.1 0.9,-5.5 2.8,-7.1 1.9,-1.7 4.5,-2.5 7.9,-2.5 1.5,0 2.8,0.2 4,0.5 h 9.7 z m -22.5,32.9 c 0,1.5 0.6,2.7 1.9,3.5 1.3,0.8 3.1,1.2 5.5,1.2 3.6,0 6.2,-0.5 8,-1.6 1.7,-1.1 2.6,-2.5 2.6,-4.4 0,-1.5 -0.5,-2.6 -1.4,-3.2 -0.9,-0.6 -2.7,-0.9 -5.3,-0.9 h -5.1 c -1.9,0 -3.4,0.5 -4.5,1.4 -1.1,1 -1.7,2.3 -1.7,4 z m 2.4,-23.9 c 0,2 0.6,3.5 1.7,4.5 1.1,1 2.7,1.5 4.7,1.5 4.2,0 6.2,-2 6.2,-6.1 0,-4.2 -2.1,-6.4 -6.3,-6.4 -2,0 -3.5,0.5 -4.6,1.6 -1.2,1.2 -1.7,2.8 -1.7,4.9 z"
   id="path15" />
		<path
   class="st0"
   d="m 260.7,84.9 c 0,3.3 -1.2,5.9 -3.6,7.7 -2.4,1.9 -5.7,2.8 -9.8,2.8 -4.5,0 -7.9,-0.6 -10.3,-1.7 v -4.2 c 1.5,0.7 3.2,1.2 5,1.5 1.8,0.4 3.6,0.6 5.4,0.6 2.9,0 5.1,-0.6 6.6,-1.7 1.5,-1.1 2.2,-2.6 2.2,-4.6 0,-1.3 -0.3,-2.4 -0.8,-3.2 -0.5,-0.8 -1.4,-1.6 -2.6,-2.3 -1.2,-0.7 -3.1,-1.5 -5.6,-2.4 -3.5,-1.3 -6,-2.7 -7.5,-4.4 -1.5,-1.7 -2.2,-4 -2.2,-6.7 0,-2.9 1.1,-5.2 3.3,-6.9 2.2,-1.7 5.1,-2.6 8.6,-2.6 3.7,0 7.2,0.7 10.3,2.1 l -1.4,3.8 c -3.1,-1.3 -6.1,-2 -9.1,-2 -2.3,0 -4.1,0.5 -5.4,1.5 -1.3,1 -2,2.4 -2,4.1 0,1.3 0.2,2.4 0.7,3.2 0.5,0.8 1.3,1.6 2.4,2.3 1.1,0.7 2.9,1.5 5.2,2.3 3.9,1.4 6.7,2.9 8.1,4.5 1.8,1.6 2.5,3.7 2.5,6.3 z"
   id="path17" />
		<path
   class="st0"
   d="M 286.2,94.9 V 76.7 c 0,-2.3 -0.5,-4 -1.6,-5.1 -1,-1.1 -2.7,-1.7 -4.9,-1.7 -2.9,0 -5.1,0.8 -6.5,2.4 -1.4,1.6 -2.1,4.2 -2.1,7.9 V 95 h -4.3 V 66.7 h 3.5 l 0.7,3.9 h 0.2 c 0.9,-1.4 2.1,-2.5 3.7,-3.2 1.6,-0.8 3.3,-1.1 5.3,-1.1 3.4,0 5.9,0.8 7.7,2.5 1.7,1.6 2.6,4.3 2.6,7.9 v 18.4 z"
   id="path19" />
		<path
   class="st0"
   d="m 315.7,94.9 -0.8,-4 h -0.2 c -1.4,1.8 -2.8,3 -4.2,3.6 -1.4,0.6 -3.1,0.9 -5.2,0.9 -2.8,0 -5,-0.7 -6.6,-2.2 -1.6,-1.4 -2.4,-3.5 -2.4,-6.1 0,-5.7 4.6,-8.7 13.7,-8.9 l 4.8,-0.2 v -1.7 c 0,-2.2 -0.5,-3.8 -1.4,-4.9 -1,-1.1 -2.5,-1.6 -4.6,-1.6 -2.3,0 -5,0.7 -8,2.2 l -1.3,-3.3 c 1.4,-0.8 2.9,-1.3 4.6,-1.8 1.7,-0.4 3.3,-0.6 5,-0.6 3.4,0 5.9,0.7 7.5,2.2 1.6,1.5 2.4,3.9 2.4,7.2 v 19.2 z m -9.6,-3 c 2.7,0 4.7,-0.7 6.3,-2.2 1.6,-1.5 2.3,-3.5 2.3,-6.1 V 81 l -4.3,0.2 c -3.4,0.1 -5.8,0.6 -7.3,1.6 -1.5,0.9 -2.2,2.4 -2.2,4.4 0,1.5 0.5,2.7 1.4,3.5 0.8,0.8 2.1,1.2 3.8,1.2 z"
   id="path21" />
		<path
   class="st0"
   d="m 349.9,66.7 v 2.7 l -5.2,0.6 c 0.5,0.6 0.9,1.4 1.3,2.4 0.4,1 0.6,2.1 0.6,3.3 0,2.8 -0.9,5 -2.8,6.6 -1.9,1.6 -4.5,2.5 -7.8,2.5 -0.8,0 -1.6,-0.1 -2.4,-0.2 -1.8,1 -2.7,2.2 -2.7,3.6 0,0.8 0.3,1.3 1,1.7 0.6,0.4 1.7,0.6 3.3,0.6 h 5 c 3.1,0 5.4,0.6 7,1.9 1.6,1.3 2.5,3.2 2.5,5.6 0,3.1 -1.3,5.5 -3.8,7.1 -2.5,1.6 -6.2,2.5 -11,2.5 -3.7,0 -6.5,-0.7 -8.5,-2.1 -2,-1.4 -3,-3.3 -3,-5.8 0,-1.7 0.5,-3.2 1.6,-4.4 1.1,-1.3 2.6,-2.1 4.6,-2.5 -0.7,-0.3 -1.3,-0.8 -1.8,-1.5 -0.5,-0.7 -0.7,-1.5 -0.7,-2.4 0,-1 0.3,-1.9 0.8,-2.7 0.5,-0.8 1.4,-1.5 2.6,-2.2 -1.5,-0.6 -2.6,-1.6 -3.6,-3.1 -0.9,-1.4 -1.4,-3.1 -1.4,-4.9 0,-3.1 0.9,-5.5 2.8,-7.1 1.9,-1.7 4.5,-2.5 7.9,-2.5 1.5,0 2.8,0.2 4,0.5 h 9.7 z m -22.5,32.9 c 0,1.5 0.6,2.7 1.9,3.5 1.3,0.8 3.1,1.2 5.5,1.2 3.6,0 6.2,-0.5 8,-1.6 1.7,-1.1 2.6,-2.5 2.6,-4.4 0,-1.5 -0.5,-2.6 -1.4,-3.2 -0.9,-0.6 -2.7,-0.9 -5.3,-0.9 h -5.1 c -1.9,0 -3.4,0.5 -4.5,1.4 -1.1,1 -1.7,2.3 -1.7,4 z m 2.3,-23.9 c 0,2 0.6,3.5 1.7,4.5 1.1,1 2.7,1.5 4.7,1.5 4.2,0 6.2,-2 6.2,-6.1 0,-4.2 -2.1,-6.4 -6.3,-6.4 -2,0 -3.5,0.5 -4.6,1.6 -1.1,1.2 -1.7,2.8 -1.7,4.9 z"
   id="path23" />
	</g>
	<g
   id="g35">
		<rect
   x="50.099998"
   y="25.1"
   class="st1"
   width="73.5"
   height="73.599998"
   id="rect27" />
		<g
   id="g33">
			<circle
   class="st2"
   cx="87.699997"
   cy="69.300003"
   r="2.8"
   id="circle29" />
			<path
   class="st2"
   d="m 86.2,51.3 h 1.5 c 10.2,0 17.4,6.7 18.3,15.9 1,10.5 -6.8,20 -18,19.9 v 0 C 76,87.1 69.2,78.6 69.2,68.9 v -10 h 7.7 V 40.7 l -4.1,2 V 55.1 H 69.3 V 40.2 l 8.2,-4.8 2.8,1.6 V 58.8 H 87 c 7.9,-0.1 11.1,5.1 11.1,10.5 0.1,7.2 -7.6,12.6 -15.3,8.9 -3.4,-1.6 -6,-5.6 -6,-9.3 v -0.1 -6.5 h -4.2 v 5.9 c -0.2,7.1 5.1,14.5 14,15.2 9,0.8 15.9,-5.6 15.9,-14.4 0,-8.3 -5.8,-14.1 -14.1,-14.1 h -2.3 m -5.7,7.5 v 6.5 c 0,4.1 3.4,7.3 7.5,7.3 4.1,0 6.8,-3.4 6.8,-6.8 0,-4.1 -3.1,-7 -7.2,-7 z"
   id="path31" />
		</g>
	</g>
	<g
   id="g55">
		<path
   class="st0"
   d="m 154.7,31.4 c 0,0 -3.4,-0.4 -4.8,-0.4 -2,0 -3.1,0.7 -3.1,2.2 0,1.6 0.9,1.9 3.7,2.7 3.5,1 4.8,1.9 4.8,4.7 0,3.6 -2.3,5.2 -5.6,5.2 -2.2,0 -5.4,-0.7 -5.4,-0.7 l 0.3,-2.2 c 0,0 3.3,0.4 5,0.4 2.1,0 3,-0.9 3,-2.7 0,-1.4 -0.8,-1.9 -3.3,-2.5 -3.6,-0.9 -5.2,-2 -5.2,-4.9 0,-3.4 2.2,-4.7 5.5,-4.7 2.1,0 5.3,0.6 5.3,0.6 z"
   id="path37" />
		<path
   class="st0"
   d="m 161.8,28.9 h 4.7 l 3.7,13 3.7,-13 h 4.7 v 16.7 h -2.7 V 31.2 h -0.1 l -4.2,13.7 h -2.8 l -4.2,-13.7 h -0.1 v 14.4 h -2.7 z"
   id="path39" />
		<path
   class="st0"
   d="m 220.4,28.9 h 12.2 v 2.4 h -4.7 v 14.2 h -2.7 V 31.3 h -4.7 v -2.4 z"
   id="path41" />
		<path
   class="st0"
   d="m 244.3,28.9 c 3.3,0 5.1,1.2 5.1,4.3 0,2 -0.6,3 -2,3.7 1.4,0.6 2.4,1.6 2.4,3.9 0,3.4 -2.1,4.7 -5.3,4.7 H 238 V 28.9 Z m -3.6,2.4 V 36 h 3.6 c 1.7,0 2.4,-0.8 2.4,-2.5 0,-1.6 -0.8,-2.3 -2.5,-2.3 h -3.5 z m 0,7 v 4.9 h 3.7 c 1.7,0 2.7,-0.5 2.7,-2.5 0,-1.9 -1.4,-2.4 -2.7,-2.4 z"
   id="path43" />
		<path
   class="st0"
   d="M 256.5,28.9 H 267 v 2.4 h -7.8 V 36 h 6.3 v 2.3 h -6.3 v 4.9 h 7.8 v 2.4 h -10.5 z"
   id="path45" />
		<path
   class="st0"
   d="m 276.7,28.9 h 5.4 l 4.1,16.7 h -2.7 l -1.2,-4.9 h -5.7 l -1.2,4.9 h -2.7 z m 0.3,9.4 h 4.7 L 280,31.2 h -1.2 z"
   id="path47" />
		<path
   class="st0"
   d="m 294.9,40.6 v 4.9 h -2.7 V 28.9 h 6.3 c 3.7,0 5.6,2.1 5.6,5.8 0,2.4 -0.9,4.5 -2.7,5.3 l 2.7,5.5 h -3 l -2.4,-4.9 z m 3.6,-9.3 h -3.6 v 7.1 h 3.7 c 2,0 2.8,-1.8 2.8,-3.6 0,-1.9 -0.9,-3.5 -2.9,-3.5 z"
   id="path49" />
		<path
   class="st0"
   d="m 188.6,28.9 h 5.4 l 4.1,16.7 h -2.7 l -1.2,-4.9 h -5.7 l -1.2,4.9 h -2.7 z m 0.4,9.4 h 4.7 L 192,31.2 h -1.2 z"
   id="path51" />
		<path
   class="st0"
   d="m 206.8,40.6 v 4.9 h -2.7 V 28.9 h 6.3 c 3.7,0 5.6,2.1 5.6,5.8 0,2.4 -0.9,4.5 -2.7,5.3 l 2.7,5.5 h -3 l -2.4,-4.9 z m 3.7,-9.3 h -3.6 v 7.1 h 3.7 c 2,0 2.8,-1.8 2.8,-3.6 -0.1,-1.9 -1,-3.5 -2.9,-3.5 z"
   id="path53" />
	</g>
</g>
</svg>
