<?xml version="1.0" encoding="UTF-8" standalone="no"?>
<!-- Generator: Adobe Illustrator 27.4.0, SVG Export Plug-In . SVG Version: 6.00 Build 0)  -->

<svg
   version="1.1"
   id="Layer_1"
   x="0px"
   y="0px"
   viewBox="0 0 600 149.99999"
   xml:space="preserve"
   sodipodi:docname="BugSnag_Light_TL.svg"
   width="600"
   height="150"
   inkscape:version="1.1.1 (c3084ef, 2021-09-22)"
   xmlns:inkscape="http://www.inkscape.org/namespaces/inkscape"
   xmlns:sodipodi="http://sodipodi.sourceforge.net/DTD/sodipodi-0.dtd"
   xmlns="http://www.w3.org/2000/svg"
   xmlns:svg="http://www.w3.org/2000/svg"><defs
   id="defs68" /><sodipodi:namedview
   id="namedview66"
   pagecolor="#ffffff"
   bordercolor="#666666"
   borderopacity="1.0"
   inkscape:pageshadow="2"
   inkscape:pageopacity="0.0"
   inkscape:pagecheckerboard="0"
   showgrid="false"
   height="100px"
   inkscape:zoom="2.8575"
   inkscape:cx="158.88014"
   inkscape:cy="66.31671"
   inkscape:window-width="3440"
   inkscape:window-height="1387"
   inkscape:window-x="0"
   inkscape:window-y="25"
   inkscape:window-maximized="1"
   inkscape:current-layer="Layer_1"
   fit-margin-top="0"
   fit-margin-left="0"
   fit-margin-right="0"
   fit-margin-bottom="0" />
<style
   type="text/css"
   id="style9">
	.st0{fill:#FFFFFF;}
	.st1{fill:#84A7FF;}
	.st2{fill:#173647;}
</style>
<rect
   class="st0"
   width="600"
   height="150"
   id="rect11"
   x="0"
   y="0"
   style="stroke-width:1.30263" />
<g
   id="g63"
   transform="matrix(1.5,0,0,1.5,0,-17.997375)">
	<g
   id="g27">
		<path
   class="st2"
   d="m 144.7,57.2 h 10.7 c 5,0 8.7,0.8 10.9,2.3 2.2,1.5 3.4,3.9 3.4,7.1 0,2.2 -0.6,4.1 -1.9,5.6 -1.3,1.5 -3.1,2.4 -5.5,2.8 v 0.3 c 5.8,1 8.6,4 8.6,9.1 0,3.4 -1.1,6 -3.4,7.9 -2.3,1.9 -5.5,2.8 -9.6,2.8 h -13.2 z m 4.4,16.2 h 7.3 c 3.1,0 5.3,-0.5 6.7,-1.5 1.4,-1 2,-2.6 2,-4.9 0,-2.1 -0.8,-3.7 -2.3,-4.6 -1.5,-0.9 -3.9,-1.4 -7.3,-1.4 H 149 Z m 0,3.8 v 14.2 h 7.9 c 3.1,0 5.4,-0.6 6.9,-1.8 1.5,-1.2 2.3,-3 2.3,-5.6 0,-2.3 -0.8,-4.1 -2.4,-5.2 -1.6,-1.1 -4,-1.7 -7.2,-1.7 h -7.5 z"
   id="path13" />
		<path
   class="st2"
   d="m 182,66.7 v 18.4 c 0,2.3 0.5,4 1.6,5.2 1.1,1.1 2.7,1.7 4.9,1.7 3,0 5.1,-0.8 6.5,-2.4 1.4,-1.6 2.1,-4.3 2.1,-8 V 66.7 h 4.3 v 28.4 h -3.5 l -0.6,-3.8 H 197 c -0.9,1.4 -2.1,2.5 -3.7,3.2 -1.6,0.7 -3.3,1.1 -5.4,1.1 -3.5,0 -6,-0.8 -7.8,-2.5 -1.7,-1.6 -2.6,-4.3 -2.6,-7.9 V 66.7 Z"
   id="path15" />
		<path
   class="st2"
   d="m 233,66.7 v 2.7 l -5.3,0.6 c 0.5,0.6 0.9,1.4 1.3,2.4 0.4,1 0.6,2.1 0.6,3.3 0,2.8 -1,5 -2.8,6.7 -1.9,1.7 -4.5,2.5 -7.8,2.5 -0.8,0 -1.6,-0.1 -2.4,-0.2 -1.8,1 -2.7,2.2 -2.7,3.7 0,0.8 0.3,1.4 1,1.7 0.6,0.4 1.7,0.6 3.3,0.6 h 5 c 3.1,0 5.4,0.6 7.1,1.9 1.6,1.3 2.5,3.2 2.5,5.6 0,3.1 -1.3,5.5 -3.8,7.2 -2.5,1.7 -6.2,2.5 -11,2.5 -3.7,0 -6.6,-0.7 -8.6,-2.1 -2,-1.4 -3,-3.3 -3,-5.9 0,-1.7 0.6,-3.2 1.7,-4.5 1.1,-1.3 2.7,-2.1 4.7,-2.6 -0.7,-0.3 -1.3,-0.8 -1.8,-1.5 -0.5,-0.7 -0.7,-1.5 -0.7,-2.4 0,-1 0.3,-1.9 0.8,-2.7 0.6,-0.8 1.4,-1.5 2.6,-2.3 -1.5,-0.6 -2.7,-1.6 -3.6,-3.1 -0.9,-1.5 -1.4,-3.1 -1.4,-5 0,-3.1 0.9,-5.5 2.8,-7.2 1.9,-1.7 4.5,-2.5 7.9,-2.5 1.5,0 2.8,0.2 4,0.5 h 9.6 z m -22.7,33.2 c 0,1.5 0.6,2.7 1.9,3.5 1.3,0.8 3.2,1.2 5.6,1.2 3.6,0 6.3,-0.5 8,-1.6 1.7,-1.1 2.6,-2.5 2.6,-4.4 0,-1.5 -0.5,-2.6 -1.4,-3.2 -1,-0.6 -2.7,-0.9 -5.4,-0.9 h -5.2 c -2,0 -3.5,0.5 -4.6,1.4 -0.9,0.9 -1.5,2.2 -1.5,4 z m 2.4,-24.1 c 0,2 0.6,3.5 1.7,4.5 1.1,1 2.7,1.5 4.7,1.5 4.2,0 6.3,-2 6.3,-6.1 0,-4.3 -2.1,-6.4 -6.4,-6.4 -2,0 -3.6,0.5 -4.7,1.6 -1.1,1.1 -1.6,2.8 -1.6,4.9 z"
   id="path17" />
		<path
   class="st2"
   d="m 261.2,85 c 0,3.3 -1.2,5.9 -3.6,7.8 -2.4,1.9 -5.7,2.8 -9.8,2.8 -4.5,0 -7.9,-0.6 -10.4,-1.7 v -4.2 c 1.6,0.7 3.2,1.2 5.1,1.6 1.8,0.4 3.6,0.6 5.4,0.6 2.9,0 5.1,-0.6 6.6,-1.7 1.5,-1.1 2.2,-2.7 2.2,-4.7 0,-1.3 -0.3,-2.4 -0.8,-3.2 -0.5,-0.8 -1.4,-1.6 -2.6,-2.3 -1.2,-0.7 -3.1,-1.5 -5.6,-2.4 -3.5,-1.3 -6,-2.8 -7.6,-4.5 -1.5,-1.7 -2.3,-4 -2.3,-6.8 0,-2.9 1.1,-5.2 3.3,-7 2.2,-1.7 5.1,-2.6 8.7,-2.6 3.8,0 7.2,0.7 10.4,2.1 l -1.4,3.8 c -3.1,-1.3 -6.2,-2 -9.1,-2 -2.3,0 -4.2,0.5 -5.5,1.5 -1.3,1 -2,2.4 -2,4.2 0,1.3 0.2,2.4 0.7,3.2 0.5,0.8 1.3,1.6 2.4,2.3 1.1,0.7 2.9,1.5 5.3,2.3 4,1.4 6.7,2.9 8.2,4.6 1.7,1.6 2.4,3.7 2.4,6.3 z"
   id="path19" />
		<path
   class="st2"
   d="M 286.9,95.1 V 76.7 c 0,-2.3 -0.5,-4 -1.6,-5.2 -1.1,-1.1 -2.7,-1.7 -4.9,-1.7 -3,0 -5.1,0.8 -6.5,2.4 -1.4,1.6 -2.1,4.3 -2.1,8 v 14.9 h -4.3 V 66.7 h 3.5 l 0.7,3.9 h 0.2 c 0.9,-1.4 2.1,-2.5 3.7,-3.3 1.6,-0.8 3.4,-1.2 5.3,-1.2 3.4,0 6,0.8 7.7,2.5 1.7,1.6 2.6,4.3 2.6,7.9 V 95 Z"
   id="path21" />
		<path
   class="st2"
   d="m 316.6,95.1 -0.9,-4 h -0.2 c -1.4,1.8 -2.8,3 -4.2,3.6 -1.4,0.6 -3.2,0.9 -5.3,0.9 -2.8,0 -5,-0.7 -6.6,-2.2 -1.6,-1.5 -2.4,-3.5 -2.4,-6.2 0,-5.7 4.6,-8.7 13.8,-9 l 4.8,-0.2 v -1.8 c 0,-2.2 -0.5,-3.9 -1.4,-4.9 -1,-1.1 -2.5,-1.6 -4.6,-1.6 -2.4,0 -5,0.7 -8,2.2 l -1.3,-3.3 c 1.4,-0.8 2.9,-1.4 4.6,-1.8 1.7,-0.4 3.3,-0.6 5,-0.6 3.4,0 5.9,0.8 7.5,2.3 1.6,1.5 2.4,3.9 2.4,7.2 v 19.4 z m -9.7,-3 c 2.7,0 4.8,-0.7 6.3,-2.2 1.5,-1.5 2.3,-3.5 2.3,-6.2 v -2.6 l -4.3,0.2 c -3.4,0.1 -5.9,0.7 -7.4,1.6 -1.5,0.9 -2.3,2.4 -2.3,4.4 0,1.6 0.5,2.7 1.4,3.5 1,0.9 2.3,1.3 4,1.3 z"
   id="path23" />
		<path
   class="st2"
   d="m 351,66.7 v 2.7 l -5.3,0.6 c 0.5,0.6 0.9,1.4 1.3,2.4 0.4,1 0.6,2.1 0.6,3.3 0,2.8 -1,5 -2.8,6.7 -1.9,1.7 -4.5,2.5 -7.8,2.5 -0.8,0 -1.6,-0.1 -2.4,-0.2 -1.8,1 -2.7,2.2 -2.7,3.7 0,0.8 0.3,1.4 1,1.7 0.6,0.4 1.7,0.6 3.3,0.6 h 5 c 3.1,0 5.4,0.6 7.1,1.9 1.6,1.3 2.5,3.2 2.5,5.6 0,3.1 -1.3,5.5 -3.8,7.2 -2.5,1.7 -6.2,2.5 -11,2.5 -3.7,0 -6.6,-0.7 -8.6,-2.1 -2,-1.4 -3,-3.3 -3,-5.9 0,-1.7 0.6,-3.2 1.7,-4.5 1.1,-1.3 2.7,-2.1 4.7,-2.6 -0.7,-0.3 -1.3,-0.8 -1.8,-1.5 -0.5,-0.7 -0.7,-1.5 -0.7,-2.4 0,-1 0.3,-1.9 0.8,-2.7 0.6,-0.8 1.4,-1.5 2.6,-2.3 -1.5,-0.6 -2.7,-1.6 -3.6,-3.1 -0.9,-1.5 -1.4,-3.1 -1.4,-5 0,-3.1 0.9,-5.5 2.8,-7.2 1.9,-1.7 4.5,-2.5 7.9,-2.5 1.5,0 2.8,0.2 4,0.5 h 9.6 z m -22.6,33.2 c 0,1.5 0.6,2.7 1.9,3.5 1.3,0.8 3.2,1.2 5.6,1.2 3.6,0 6.3,-0.5 8,-1.6 1.7,-1.1 2.6,-2.5 2.6,-4.4 0,-1.5 -0.5,-2.6 -1.4,-3.2 -1,-0.6 -2.7,-0.9 -5.4,-0.9 h -5.2 c -2,0 -3.5,0.5 -4.6,1.4 -1.1,0.9 -1.5,2.2 -1.5,4 z m 2.3,-24.1 c 0,2 0.6,3.5 1.7,4.5 1.1,1 2.7,1.5 4.7,1.5 4.2,0 6.3,-2 6.3,-6.1 0,-4.3 -2.1,-6.4 -6.4,-6.4 -2,0 -3.6,0.5 -4.7,1.6 -1,1.1 -1.6,2.8 -1.6,4.9 z"
   id="path25" />
	</g>
	<g
   id="g41">
		<g
   id="g33">
			<rect
   x="50.900002"
   y="26.700001"
   class="st1"
   width="70.199997"
   height="70.199997"
   id="rect29" />
			<path
   class="st2"
   d="M 119.2,28.6 V 95 H 52.9 V 28.6 h 66.3 m 3.9,-3.9 H 49 v 74.1 h 74.1 z"
   id="path31" />
		</g>
		<g
   id="g39">
			<circle
   class="st2"
   cx="86.800003"
   cy="69.300003"
   r="2.8"
   id="circle35" />
			<path
   class="st2"
   d="m 85.4,51.2 h 1.5 c 10.3,0 17.6,6.8 18.5,16 1,10.6 -6.9,20.2 -18.1,20.1 v 0 C 75.2,87.3 68.4,78.8 68.3,69 V 58.8 H 76 V 40.5 l -4.1,2 V 55 H 68.4 V 40 l 8.3,-4.8 2.8,1.6 v 22 h 6.7 c 8,-0.1 11.2,5.2 11.2,10.6 0.1,7.3 -7.7,12.6 -15.4,9 -3.4,-1.6 -6,-5.6 -6,-9.4 v 0 -6.6 h -4.2 v 5.9 c -0.2,7.1 5.1,14.6 14.1,15.3 9,0.8 16.1,-5.7 16.1,-14.5 0,-8.4 -5.8,-14.2 -14.2,-14.2 h -2.3 m -6,7.5 V 69 c 0,4.1 3.4,7.3 7.6,7.3 4.1,0 6.9,-3.4 6.8,-6.8 0,-4.1 -3.1,-7.1 -7.2,-7.1 z"
   id="path37" />
		</g>
	</g>
	<g
   id="g61">
		<path
   class="st2"
   d="m 154.4,31.1 c 0,0 -3.4,-0.4 -4.8,-0.4 -2.1,0 -3.1,0.7 -3.1,2.2 0,1.6 0.9,1.9 3.7,2.7 3.5,1 4.8,1.9 4.8,4.8 0,3.7 -2.3,5.3 -5.6,5.3 -2.2,0 -5.5,-0.7 -5.5,-0.7 l 0.3,-2.2 c 0,0 3.3,0.4 5,0.4 2.1,0 3,-0.9 3,-2.7 0,-1.4 -0.8,-1.9 -3.3,-2.5 -3.6,-0.9 -5.2,-2 -5.2,-4.9 0,-3.4 2.2,-4.8 5.6,-4.8 2.1,0 5.3,0.6 5.3,0.6 z"
   id="path43" />
		<path
   class="st2"
   d="m 161.5,28.6 h 4.7 l 3.7,13.1 3.7,-13.1 h 4.8 v 16.8 h -2.7 V 30.9 h -0.1 l -4.2,13.8 h -2.8 l -4.2,-13.8 h -0.1 v 14.5 h -2.7 z"
   id="path45" />
		<path
   class="st2"
   d="m 220.6,28.6 h 12.2 V 31 h -4.7 v 14.4 h -2.7 V 31.1 h -4.8 z"
   id="path47" />
		<path
   class="st2"
   d="m 244.7,28.6 c 3.3,0 5.1,1.2 5.1,4.4 0,2 -0.6,3 -2,3.8 1.4,0.6 2.4,1.6 2.4,3.9 0,3.4 -2.1,4.8 -5.3,4.8 h -6.6 V 28.6 Z M 241,31 v 4.8 h 3.6 c 1.7,0 2.4,-0.8 2.4,-2.5 0,-1.6 -0.8,-2.3 -2.5,-2.3 H 241 Z m 0,7.1 v 5 h 3.7 c 1.7,0 2.7,-0.5 2.7,-2.5 0,-1.9 -1.4,-2.4 -2.7,-2.4 H 241 Z"
   id="path49" />
		<path
   class="st2"
   d="m 256.9,28.6 h 10.6 V 31 h -7.9 v 4.8 h 6.4 v 2.3 h -6.4 V 43 h 7.9 v 2.4 h -10.6 z"
   id="path51" />
		<path
   class="st2"
   d="m 277.3,28.6 h 5.4 l 4.2,16.8 h -2.7 L 283,40.5 h -5.8 l -1.2,4.9 h -2.7 z m 0.3,9.5 h 4.7 l -1.7,-7.2 h -1.2 z"
   id="path53" />
		<path
   class="st2"
   d="m 295.6,40.5 v 5 h -2.7 V 28.6 h 6.4 c 3.7,0 5.7,2.1 5.7,5.8 0,2.4 -1,4.5 -2.7,5.4 l 2.8,5.6 h -3 l -2.4,-5 h -4.1 z m 3.7,-9.5 h -3.6 v 7.1 h 3.7 c 2.1,0 2.8,-1.8 2.8,-3.6 -0.1,-1.9 -1,-3.5 -2.9,-3.5 z"
   id="path55" />
		<path
   class="st2"
   d="m 188.5,28.6 h 5.4 l 4.2,16.8 h -2.7 l -1.2,-4.9 h -5.8 l -1.2,4.9 h -2.7 z m 0.4,9.5 h 4.7 l -1.7,-7.2 h -1.2 z"
   id="path57" />
		<path
   class="st2"
   d="m 206.9,40.5 v 5 h -2.7 V 28.6 h 6.4 c 3.7,0 5.7,2.1 5.7,5.8 0,2.4 -1,4.5 -2.7,5.4 l 2.8,5.6 h -3 l -2.4,-5 h -4.1 z m 3.6,-9.5 h -3.6 v 7.1 h 3.7 c 2.1,0 2.8,-1.8 2.8,-3.6 0,-1.9 -0.9,-3.5 -2.9,-3.5 z"
   id="path59" />
	</g>
</g>
</svg>
